<svg width="150" height="44" viewBox="0 0 150 44" fill="none" xmlns="http://www.w3.org/2000/svg">
<g clip-path="url(#clip0_4047_14448)">
<path d="M146.368 0.611328H3.06128C1.70875 0.611328 0.612305 1.70574 0.612305 3.05577V40.9447C0.612305 42.2947 1.70875 43.3891 3.06128 43.3891H146.368C147.721 43.3891 148.817 42.2947 148.817 40.9447V3.05577C148.817 1.70574 147.721 0.611328 146.368 0.611328Z" stroke="#7E212B"/>
<path d="M35.3905 20.9721C35.3622 17.5883 38.1674 15.9389 38.298 15.8652C36.708 13.5526 34.2435 13.2352 33.3747 13.2125C31.302 12.9972 29.2975 14.4482 28.2413 14.4482C27.168 14.4482 25.5439 13.2352 23.7893 13.2692C21.5349 13.3032 19.4281 14.6069 18.2754 16.6247C15.8904 20.7454 17.6678 26.7988 19.9563 30.1316C21.0976 31.764 22.4321 33.5835 24.1811 33.5211C25.8903 33.4531 26.532 32.4328 28.5933 32.4328C30.6376 32.4328 31.2395 33.5211 33.0226 33.4814C34.8568 33.4531 36.0152 31.8434 37.1168 30.1997C38.4399 28.3292 38.9681 26.4871 38.9908 26.3964C38.9453 26.368 35.4246 25.0248 35.3905 20.9721ZM32.0232 11.019C32.9431 9.86841 33.5734 8.30971 33.3974 6.72266C32.0686 6.77931 30.3991 7.64085 29.4451 8.76316C28.599 9.75505 27.8381 11.3761 28.0369 12.9008C29.5246 13.0085 31.0635 12.1469 32.0232 11.019Z" fill="#7E212B"/>
<path d="M60.1604 33.2771H57.7698L56.4581 29.1734H51.9095L50.6602 33.2771H48.332L52.8408 19.2997H55.6233L60.1604 33.2771ZM56.0662 27.4503L54.8794 23.8002C54.7545 23.426 54.5159 22.5475 54.1752 21.1645H54.1355C53.9992 21.7597 53.7721 22.6382 53.4711 23.8002L52.307 27.4503H56.0662ZM71.7336 28.1135C71.7336 29.8253 71.2677 31.1799 70.3365 32.1775C69.5014 33.0617 68.4624 33.5038 67.2244 33.5038C65.8842 33.5038 64.9248 33.0277 64.3402 32.0755V37.3638H62.0969V26.5095C62.0969 25.4326 62.0687 24.3272 62.0118 23.1993H63.9875L64.113 24.7977H64.1522C64.9022 23.5961 66.0379 22.9896 67.5593 22.9896C68.752 22.9896 69.7457 23.4601 70.541 24.4009C71.3357 25.3419 71.7336 26.5832 71.7336 28.1135ZM69.4506 28.1985C69.4506 27.218 69.2289 26.4075 68.7863 25.7726C68.3032 25.1095 67.6506 24.7807 66.8326 24.7807C66.2822 24.7807 65.7765 24.9677 65.3277 25.3305C64.8795 25.6989 64.5838 26.1807 64.4479 26.7702C64.3855 26.9913 64.3512 27.2236 64.3457 27.4503V29.1338C64.3457 29.8649 64.5728 30.4827 65.0216 30.9929C65.4697 31.4973 66.0551 31.7524 66.7757 31.7524C67.6218 31.7524 68.2806 31.4236 68.752 30.7775C69.2118 30.12 69.4506 29.2641 69.4506 28.1985ZM83.3516 28.1135C83.3516 29.8253 82.8863 31.1799 81.9544 32.1775C81.1199 33.0617 80.081 33.5038 78.843 33.5038C77.5028 33.5038 76.5428 33.0277 75.9581 32.0755V37.3638H73.7148V26.5095C73.7148 25.4326 73.6867 24.3272 73.6297 23.1993H75.6061L75.731 24.7977H75.7708C76.5202 23.5961 77.6559 22.9896 79.1779 22.9896C80.3706 22.9896 81.3642 23.4601 82.1589 24.4009C82.9487 25.3419 83.3516 26.5832 83.3516 28.1135ZM81.063 28.1985C81.063 27.218 80.842 26.4075 80.3987 25.7726C79.9163 25.1095 79.263 24.7807 78.4457 24.7807C77.8946 24.7807 77.3889 24.9677 76.9346 25.3305C76.4865 25.6989 76.1908 26.1807 76.0548 26.7702C75.9863 27.0479 75.9471 27.2746 75.9471 27.4503V29.1338C75.9471 29.8649 76.1742 30.4827 76.6224 30.9929C77.0712 31.4973 77.6559 31.7524 78.3832 31.7524C79.2287 31.7524 79.8875 31.4236 80.3589 30.7775C80.8304 30.12 81.063 29.2641 81.063 28.1985ZM96.3385 29.3605C96.3385 30.5508 95.924 31.52 95.0951 32.2625C94.1865 33.0787 92.9087 33.4868 91.2789 33.4868C89.774 33.4868 88.5648 33.1978 87.6502 32.6139L88.1669 30.7492C89.1495 31.333 90.2338 31.622 91.4093 31.622C92.2555 31.622 92.9142 31.4293 93.3857 31.0495C93.8571 30.6698 94.0953 30.1597 94.0953 29.5249C94.0953 28.9581 93.8969 28.4819 93.5106 28.0908C93.1242 27.7054 92.4826 27.3426 91.5802 27.0139C89.1269 26.1014 87.9 24.7637 87.9 23.0123C87.9 21.8673 88.3316 20.9265 89.2004 20.1953C90.0636 19.4641 91.211 19.0957 92.6418 19.0957C93.914 19.0957 94.9757 19.3167 95.8218 19.7588L95.2598 21.584C94.4644 21.1532 93.573 20.9435 92.5677 20.9435C91.7785 20.9435 91.154 21.1361 90.7108 21.5216C90.3361 21.8673 90.1487 22.2868 90.1487 22.7856C90.1487 23.3353 90.3648 23.7945 90.7965 24.1515C91.1712 24.4803 91.8465 24.8431 92.8291 25.2285C94.0328 25.7159 94.9187 26.2771 95.4869 26.9289C96.0544 27.5807 96.3385 28.3913 96.3385 29.3605ZM103.777 24.8827H101.301V29.7743C101.301 31.0212 101.739 31.639 102.613 31.639C103.016 31.639 103.346 31.605 103.613 31.537L103.675 33.2374C103.232 33.4018 102.653 33.4868 101.932 33.4868C101.046 33.4868 100.353 33.2148 99.8534 32.6763C99.3538 32.1378 99.104 31.2309 99.104 29.9613V24.8827H97.6334V23.205H99.104V21.3572L101.307 20.6941V23.205H103.783L103.777 24.8827ZM114.913 28.1588C114.913 29.7062 114.47 30.9816 113.584 31.9735C112.659 32.9993 111.427 33.5095 109.888 33.5095C108.405 33.5095 107.224 33.0164 106.344 32.0415C105.464 31.0609 105.027 29.8196 105.027 28.3289C105.027 26.7645 105.481 25.4892 106.39 24.4916C107.298 23.4941 108.519 23.0009 110.058 23.0009C111.54 23.0009 112.733 23.4941 113.63 24.4746C114.481 25.4212 114.913 26.6512 114.913 28.1588ZM112.585 28.2099C112.585 27.286 112.386 26.4925 111.983 25.835C111.512 25.0358 110.841 24.6333 109.967 24.6333C109.07 24.6333 108.377 25.0358 107.911 25.835C107.508 26.4981 107.309 27.303 107.309 28.2552C107.309 29.1791 107.508 29.9726 107.911 30.6358C108.394 31.435 109.076 31.8374 109.95 31.8374C110.808 31.8374 111.478 31.4293 111.966 30.6188C112.381 29.933 112.585 29.1338 112.585 28.2099ZM122.21 25.1718C121.977 25.1321 121.739 25.1095 121.5 25.1095C120.711 25.1095 120.103 25.4042 119.672 25.9994C119.297 26.5264 119.11 27.1896 119.11 27.9888V33.2771H116.866V26.3734C116.866 25.3135 116.849 24.2592 116.804 23.1993H118.758L118.837 25.1265H118.899C119.138 24.4633 119.507 23.9305 120.024 23.5281C120.489 23.1766 121.063 22.9896 121.647 22.9896C121.858 22.9896 122.039 23.0066 122.21 23.0293V25.1718ZM132.244 27.7621C132.25 28.1022 132.221 28.4423 132.165 28.7767H125.43C125.453 29.7743 125.782 30.5337 126.406 31.0609C126.974 31.5313 127.707 31.7637 128.61 31.7637C129.609 31.7637 130.518 31.605 131.336 31.2876L131.688 32.8406C130.733 33.2544 129.604 33.4641 128.303 33.4641C126.736 33.4641 125.509 33.005 124.612 32.0868C123.721 31.1686 123.272 29.933 123.272 28.3856C123.272 26.8665 123.686 25.6026 124.521 24.5937C125.39 23.5167 126.571 22.9783 128.053 22.9783C129.507 22.9783 130.608 23.5167 131.358 24.5937C131.943 25.4495 132.244 26.5038 132.244 27.7621ZM130.103 27.1839C130.12 26.5208 129.973 25.9483 129.666 25.4609C129.28 24.8374 128.678 24.5257 127.877 24.5257C127.145 24.5257 126.549 24.8317 126.088 25.4382C125.713 25.92 125.492 26.5038 125.424 27.1783L130.103 27.1839Z" fill="#7E212B"/>
<path d="M51.2621 14.3624C50.6375 14.3624 50.0981 14.334 49.6494 14.283V7.52106C50.2798 7.42469 50.9158 7.37366 51.5518 7.37935C54.1241 7.37935 55.311 8.64331 55.311 10.7008C55.3053 13.0757 53.9084 14.3624 51.2621 14.3624ZM51.6426 8.24658C51.2962 8.24658 51.0009 8.26925 50.7568 8.32021V13.4555C50.8874 13.4782 51.1429 13.4838 51.5007 13.4838C53.1871 13.4838 54.1468 12.5259 54.1468 10.7348C54.1411 9.13079 53.2724 8.24658 51.6426 8.24658ZM59.002 14.4134C57.554 14.4134 56.6113 13.3308 56.6113 11.8628C56.6113 10.3324 57.571 9.24415 59.0815 9.24415C60.5125 9.24415 61.4724 10.2757 61.4724 11.7834C61.4724 13.3308 60.4841 14.4134 59.002 14.4134ZM59.0417 10.049C58.2467 10.049 57.7357 10.7915 57.7357 11.8344C57.7357 12.8547 58.2581 13.5972 59.0304 13.5972C59.8084 13.5972 60.3251 12.8036 60.3251 11.8117C60.3308 10.8029 59.8197 10.049 59.0417 10.049ZM69.7401 9.34615L68.1899 14.3H67.1791L66.5375 12.1518C66.3783 11.6247 66.2424 11.0919 66.1401 10.5535H66.1175C66.0379 11.0919 65.8842 11.636 65.7195 12.1518L65.0381 14.3H64.0162L62.5566 9.34615H63.6924L64.2544 11.6984C64.3854 12.2595 64.4987 12.7866 64.5899 13.2911H64.6126C64.6921 12.8716 64.8281 12.3559 65.0215 11.7097L65.7256 9.34615H66.6226L67.2985 11.6587C67.4632 12.2198 67.5936 12.7697 67.6958 13.2911H67.724C67.7981 12.781 67.9058 12.2425 68.0595 11.6587L68.6613 9.34615H69.7401ZM75.4585 14.3H74.357V11.4547C74.357 10.5761 74.0215 10.1397 73.3573 10.1397C72.7046 10.1397 72.2558 10.7008 72.2558 11.3526V14.3H71.1544V10.7631C71.1544 10.3267 71.1428 9.8563 71.1146 9.34615H72.0856L72.1364 10.1113H72.1646C72.4603 9.58424 73.0621 9.24415 73.7381 9.24415C74.777 9.24415 75.464 10.0377 75.464 11.3356L75.4585 14.3ZM78.4964 14.3H77.395V7.07324H78.4964V14.3ZM82.5226 14.4134C81.0746 14.4134 80.1317 13.3308 80.1317 11.8628C80.1317 10.3324 81.0917 9.24415 82.6021 9.24415C84.033 9.24415 84.993 10.2757 84.993 11.7834C84.993 13.3308 83.9993 14.4134 82.5226 14.4134ZM82.5624 10.049C81.767 10.049 81.2564 10.7915 81.2564 11.8344C81.2564 12.8547 81.7787 13.5972 82.5507 13.5972C83.3289 13.5972 83.8456 12.8036 83.8456 11.8117C83.8456 10.8029 83.3405 10.049 82.5624 10.049ZM89.3423 14.3L89.2628 13.7275H89.2346C88.8997 14.1866 88.4056 14.4077 87.7811 14.4077C86.8891 14.4077 86.2591 13.7842 86.2591 12.951C86.2591 11.7267 87.3207 11.0976 89.1605 11.0976V11.0069C89.1605 10.355 88.8146 10.0263 88.1332 10.0263C87.6446 10.0263 87.213 10.151 86.8383 10.3948L86.6166 9.66924C87.077 9.38581 87.6501 9.23847 88.3205 9.23847C89.6148 9.23847 90.2736 9.91864 90.2736 11.2846V13.1097C90.2736 13.6085 90.2962 13.9996 90.3477 14.2943L89.3423 14.3ZM89.1893 11.8344C87.9623 11.8344 87.3495 12.1291 87.3495 12.832C87.3495 13.3534 87.6673 13.6085 88.1044 13.6085C88.667 13.6085 89.1893 13.1834 89.1893 12.5996V11.8344ZM95.6172 14.3L95.5664 13.5065H95.5377C95.2199 14.1073 94.686 14.4134 93.9421 14.4134C92.744 14.4134 91.8581 13.3648 91.8581 11.8854C91.8581 10.338 92.7783 9.24415 94.0328 9.24415C94.6977 9.24415 95.1685 9.46519 95.4299 9.91864H95.4526V7.07324H96.554V12.9623C96.554 13.4385 96.5656 13.8919 96.5938 14.2943H95.6172V14.3ZM95.4581 11.3866C95.4581 10.6951 94.9983 10.1 94.2942 10.1C93.4762 10.1 92.9766 10.8255 92.9766 11.8401C92.9766 12.8377 93.4934 13.5235 94.2715 13.5235C94.964 13.5235 95.4581 12.9227 95.4581 12.2085V11.3866ZM103.562 14.4134C102.114 14.4134 101.171 13.3308 101.171 11.8628C101.171 10.3324 102.13 9.24415 103.641 9.24415C105.072 9.24415 106.032 10.2757 106.032 11.7834C106.032 13.3308 105.044 14.4134 103.562 14.4134ZM103.602 10.049C102.806 10.049 102.295 10.7915 102.295 11.8344C102.295 12.8547 102.818 13.5972 103.59 13.5972C104.368 13.5972 104.885 12.8036 104.885 11.8117C104.89 10.8029 104.379 10.049 103.602 10.049ZM111.966 14.3H110.864V11.4547C110.864 10.5761 110.529 10.1397 109.865 10.1397C109.212 10.1397 108.763 10.7008 108.763 11.3526V14.3H107.661V10.7631C107.661 10.3267 107.65 9.8563 107.622 9.34615H108.593L108.644 10.1113H108.672C108.968 9.58424 109.57 9.24415 110.245 9.24415C111.285 9.24415 111.972 10.0377 111.972 11.3356V14.3H111.966ZM119.382 10.1737H118.167V12.5769C118.167 13.1891 118.377 13.4952 118.808 13.4952C119.001 13.4952 119.166 13.4725 119.297 13.4441L119.325 14.2773C119.11 14.3567 118.826 14.4021 118.468 14.4021C117.599 14.4021 117.076 13.9259 117.076 12.6676V10.168H116.35V9.34046H117.076V8.43358L118.161 8.10486V9.34046H119.377L119.382 10.1737ZM125.225 14.3H124.123V11.4773C124.123 10.5931 123.788 10.1454 123.124 10.1454C122.551 10.1454 122.023 10.5308 122.023 11.3186V14.3057H120.921V7.07324H122.023V10.049H122.045C122.392 9.51054 122.897 9.24415 123.539 9.24415C124.589 9.24415 125.231 10.0603 125.231 11.3526L125.225 14.3ZM131.205 12.0895H127.894C127.917 13.0247 128.536 13.5575 129.456 13.5575C129.944 13.5575 130.398 13.4782 130.796 13.3251L130.966 14.0903C130.495 14.2943 129.944 14.3964 129.302 14.3964C127.752 14.3964 126.833 13.4158 126.833 11.9024C126.833 10.3834 127.775 9.24415 129.177 9.24415C130.444 9.24415 131.239 10.1793 131.239 11.5964C131.25 11.7551 131.239 11.9251 131.205 12.0895ZM130.194 11.3016C130.194 10.5364 129.808 9.99796 129.104 9.99796C128.468 9.99796 127.968 10.5478 127.9 11.3016H130.194Z" fill="#7E212B"/>
</g>
<defs>
<clipPath id="clip0_4047_14448">
<rect width="150" height="44" fill="white"/>
</clipPath>
</defs>
</svg>
