<svg width="145" height="61" viewBox="0 0 145 61" fill="none" xmlns="http://www.w3.org/2000/svg">
<g clip-path="url(#clip0_4047_53194)">
<path d="M55.1764 13.4579H59.2957V38.0579H48.1533V13.4579H55.1764ZM55.1764 17.6631H52.2992V33.9474H55.1764V17.6631Z" fill="#7E212B"/>
<path d="M70.7621 13.4579H72.6466V17.4684H67.4125V24.7526L68.5803 23.5947L70.7621 21.4053V25.7579L70.3162 26.1737L67.4125 29.0789V38.0579H63.2666V13.4579H70.7621Z" fill="#7E212B"/>
<path d="M84.1078 13.4579H85.9923V17.4684H80.7582V24.7526L81.926 23.5947L84.1078 21.4053V25.7579L83.6619 26.1737L80.7582 29.0789V38.0579H76.6123V13.4579H84.1078Z" fill="#7E212B"/>
<path d="M94.1084 33.9474H99.3956V38.0579H89.9678V13.4579H94.1137V33.9526L94.1084 33.9474Z" fill="#7E212B"/>
<path d="M110.384 13.4579H114.504V38.0579H103.361V13.4579H110.384ZM110.384 17.6631H107.507V33.9474H110.384V17.6631Z" fill="#7E212B"/>
<path d="M125.619 13.4579H129.739V38.0579H125.619V26.0053L125.444 26.1789L122.588 29.0105V38.0632H118.469V13.4579H125.614H125.619ZM125.619 17.4631H122.593V24.6474L123.687 23.5895L125.625 21.6474V17.4631H125.619Z" fill="#7E212B"/>
<path d="M145 13.4579V38.0579H138.773L137.855 36.4368L136.91 38.0579H133.709V13.4579H136.91L137.855 15.0789L138.773 13.4579H145ZM140.881 17.4631H137.855V34.0947H140.881V17.4631Z" fill="#7E212B"/>
<path d="M77.2914 42.4157H80.4021V60.9999H77.2701V50.742L76.0917 54.8104L75.8687 55.5157L75.1733 57.8947H72.6624L71.967 55.5157L71.744 54.8104L70.5656 50.742V60.9999H67.4336V42.4157H70.5443L70.5656 42.4526L71.4839 45.5947L71.9723 47.2315L72.8163 50.1683L73.9205 53.8841L75.0247 50.1683L75.8687 47.2315L76.3571 45.5947L77.2754 42.4526L77.2967 42.4157H77.2914Z" fill="#2F3033"/>
<path d="M90.7271 42.4158H92.0754V45.4474H88.0092V51.3579L88.0463 51.3368L89.3204 50.0737L90.7271 48.6789V51.9474L90.6528 52.021L88.0092 54.6421V58.0053H92.0754V60.9947H84.8984V42.4105H90.7271V42.4158Z" fill="#2F3033"/>
<path d="M105.107 42.4158V61H100.404L99.7087 59.7737L98.9974 61H96.582V42.4158H98.9974L99.7087 43.6421L100.404 42.4158H105.107ZM101.997 45.4421H99.7087V58.0052H101.997V45.4421Z" fill="#2F3033"/>
<path d="M109.604 42.4158H112.714V61H109.604V42.4158Z" fill="#2F3033"/>
<path d="M122.615 42.4158H125.725V61H122.615V51.8947L122.482 52.0263L120.327 54.1631V61H117.216V42.4158H122.615ZM122.615 45.4421H120.327V50.8684L121.149 50.0684L122.609 48.6V45.4421H122.615Z" fill="#2F3033"/>
<path d="M31.246 26.3211C31.0495 25.9842 31.0124 23.7474 31.1398 23.3053C31.2672 22.8684 30.8903 22.5316 31.0602 22.2737C31.23 22.0158 30.9965 21.6421 31.1398 21.3737C31.2831 21.1053 31.3627 20.779 31.3362 20.6158C31.3097 20.4527 31.5963 20.1632 31.7131 19.8158C31.8299 19.4684 31.9732 19.6632 32.2333 19.5053C32.4934 19.3474 32.0263 18.8737 32.3129 18.7948C32.5996 18.7158 32.8703 18.3316 32.8969 18.2684C32.9234 18.2053 33.3534 18.2421 33.3534 18.2421C33.3534 18.2421 33.4171 18.5 33.5233 18.8105C33.6294 19.1211 33.8471 19.9316 33.9108 20.4474C33.9745 20.9632 34.6911 22.7684 34.7442 22.9737C34.7973 23.179 34.8079 23.3474 34.9406 25.3158C35.068 27.2842 35.9652 28.9895 36.0819 29.5684C36.1987 30.1474 36.4217 31.8632 36.4217 32.2105C36.4217 32.5579 35.4874 33.6158 35.4237 33.7053C35.36 33.7948 35.3865 35.0842 35.3971 35.3263C35.4078 35.5684 35.5936 35.9579 35.5936 35.9579C35.5936 35.9579 35.6042 36.0369 35.6042 36.279C35.6042 36.5211 35.7103 36.6527 35.7103 36.6527C36.5438 36.5632 36.2146 35.3632 36.2146 35.2369C36.2146 35.1105 36.4376 34.7211 36.4376 34.7211C36.4376 34.7211 36.841 34.7579 36.9844 34.6948C37.1277 34.6316 37.5152 34.6842 37.5152 34.6842C37.5152 34.6842 37.7222 35.0948 37.8125 35.1842C37.9027 35.2737 37.9399 35.8158 37.9664 35.9948C37.993 36.1737 37.9027 36.5106 37.8125 37.2211C37.7222 37.9316 38.0354 38.1211 38.1257 38.1369C38.2159 38.1527 38.3327 37.6737 38.3752 37.4948C38.4177 37.3158 38.6725 36.5053 38.7149 36.3895C38.7574 36.2737 38.768 35.679 38.768 35.679C38.768 35.679 38.8583 35.6895 38.9113 35.7842C38.9644 35.879 39.2086 36.3 39.2245 36.3632C39.2405 36.4263 39.1077 37.1369 39.0971 37.2895C39.0865 37.4421 38.991 37.4579 38.9007 37.8579C38.8105 38.2579 39.2776 38.4 39.2776 38.4C39.2776 38.4 39.405 38.0632 39.474 37.9105C39.543 37.7579 39.7872 37.1527 39.7872 37.1527C39.7872 37.1527 39.8669 37.679 39.9306 38.079C39.9943 38.479 40.3605 38.4263 40.3977 38.3895C40.4349 38.3527 40.4349 37.6421 40.4349 37.6421C40.4349 37.6421 40.8755 37.7053 40.7481 37.3684C40.5676 36.9053 40.4614 36.1579 40.4455 36.0211C40.4296 35.8842 39.9783 35.1737 39.9146 35.0527C39.8509 34.9316 39.4687 33.9632 39.3254 33.8421C39.1821 33.7211 38.6565 32.6948 38.6565 32.5527C38.6565 32.4105 38.8795 32.1684 38.7574 31.9263C38.6353 31.6842 38.5928 30.6158 38.5928 30.4158C38.5928 30.2158 38.9166 27.6369 38.9803 25.5421C39.0387 23.4474 38.3699 22.4211 38.2478 22.179C38.1257 21.9369 38.0036 21.6737 37.9452 20.0263C37.8868 18.3737 37.0322 17.2053 37.0322 17.2053C37.0905 16.8421 36.9313 16.4211 36.9313 16.4211C37.4409 13.9421 35.429 11.7895 35.429 11.7895L34.8398 11.3263C33.3959 9.59476 31.6919 8.48423 31.6919 8.48423C31.591 8.07897 31.2247 7.77897 31.2247 7.77897L31.368 7.09476L31.7768 6.6895C32.1855 6.28424 32.1431 5.54213 32.1431 5.54213C32.1431 5.54213 32.4297 5.00002 32.5677 4.31581C32.7111 3.6316 33.1995 1.33687 31.2884 0.489498C29.3774 -0.35787 27.4079 0.105288 26.6754 0.489498C25.9428 0.873709 26.3516 2.07897 26.3516 2.07897C26.3516 2.07897 25.842 3.06845 25.6721 3.44213C25.5022 3.81581 25.6615 4.20002 25.6986 4.26845C25.7358 4.33687 25.7252 4.53687 25.7092 4.65266C25.6933 4.76845 25.5925 5.05266 25.5022 5.19476C25.412 5.33687 25.3323 6.98423 25.3323 6.98423C25.3323 6.98423 24.3078 7.46318 24.1751 7.52634C24.0424 7.5895 23.6814 7.46318 23.4107 7.65266C23.14 7.84213 22.9966 8.02634 22.4764 7.87371C21.9562 7.72108 22.0995 8.10529 21.8553 8.04213C21.6111 7.97897 21.0113 8.0316 21.0113 8.0316C21.0113 8.0316 20.3637 7.71055 19.8434 7.65792C19.3232 7.60529 17.2582 8.11055 17.0246 8.22634C16.7911 8.34213 16.5681 8.35266 16.4673 8.48423C16.3664 8.61581 16.17 8.62634 15.8568 8.57371C15.5436 8.52108 14.6358 8.26318 12.0772 8.65266C9.51851 9.03687 9.24247 9.54213 8.42497 9.74739C7.60747 9.95266 6.59356 12.579 6.57764 12.6948C6.56171 12.8106 6.12111 13.1053 6.12111 13.1053C6.12111 13.1053 4.31624 10.0421 1.6514 10.8895C-1.07182 11.7579 0.457006 16.4527 0.457006 16.4527C0.924149 18.2316 3.29171 20.9842 5.68051 20.3421C7.1191 19.9527 7.16156 18.2316 7.16156 18.2316C7.16156 18.2316 7.52785 18.5158 7.64463 18.3842C7.76142 18.2527 7.73488 17.9316 7.77203 17.6C7.80919 17.2684 7.74549 17.0842 7.71895 16.5053C7.69241 15.9263 7.89944 15.5 8.03215 15.2316C8.16486 14.9632 8.60546 14.3684 8.74879 14.1737C8.89211 13.979 9.12569 13.8 9.5132 13.579C9.90072 13.3579 10.3042 12.8842 10.5908 12.679C10.8775 12.4737 11.9551 12.4579 12.9955 12.4842C14.036 12.5105 16.5575 12.3579 16.8813 12.3579C17.2051 12.3579 17.2051 12.3579 17.3113 12.4842C17.4175 12.6105 17.582 12.5737 17.8156 12.6369C18.0492 12.7 18.0386 12.4842 18.2721 12.4579C18.5057 12.4316 18.3995 12.8948 18.4951 12.9737C18.5906 13.0527 18.9622 13.0263 19.0259 13.1421C19.0896 13.2579 19.2595 14.3684 19.3391 14.6105C19.4187 14.8527 19.4559 15.6421 19.4559 16.3632C19.4559 17.0842 19.7426 18.2053 19.7797 18.6948C19.8169 19.1842 19.9761 20.2895 19.8859 20.4474C19.7956 20.6053 19.7319 21.0421 19.7691 21.2316C19.8063 21.4263 19.6152 21.9895 19.5727 22.2737C19.5302 22.5579 19.0896 23.5474 18.9994 23.9632C18.9091 24.3737 18.9357 25.6263 18.6756 25.779C18.4155 25.9316 18.5216 26.8369 18.5057 27.2842C18.4898 27.7316 18.5322 28.5211 18.4261 28.8684C18.3199 29.2158 18.6225 30.3895 18.4792 30.879C18.4792 30.879 17.7678 31.4737 18.012 31.9369C18.2562 32.4 18.5216 32.7 18.5429 33.2684C18.5641 33.8369 18.8667 35.7474 18.9091 36.0053C18.9516 36.2632 19.801 41.6263 21.1652 43.0527C21.1652 43.0527 21.489 43.4579 21.5527 43.7158C21.6164 43.9737 22.3649 45.0842 22.7737 45.3053C23.1824 45.5263 23.5434 45.8105 24.1167 45.7895C24.1167 45.7895 23.708 47.4211 24.6476 49.0316C25.5818 50.6421 26.3516 51.4105 27.2062 50.9263C28.0609 50.4421 28.1617 48.2474 28.098 47.8632C28.0343 47.479 27.1213 44.5579 27.185 43.9369C27.2487 43.3158 27.1266 41.379 27.1054 41.2158C27.0841 41.0527 26.7179 40.2684 26.1711 40.2895C26.1711 40.2895 26.0065 39.1632 25.8685 38.8C25.8685 38.8 26.0702 37.6527 26.0331 37.0474C25.9906 36.4421 25.9322 35.2737 25.9322 35.2737C25.9322 35.2737 26.5798 37.1053 26.824 37.4474C27.0682 37.7895 28.9155 40.6105 29.2022 40.8737C29.4889 41.1369 30.7682 43.2895 30.9699 43.7158C31.1716 44.1369 31.2141 45.1474 31.4371 45.5263C31.66 45.9105 31.7396 46.1316 31.7396 46.1316C31.7396 46.1316 31.798 49.4527 31.798 50.0211C31.798 50.5895 31.798 51.5527 32.1643 52.0369C32.5306 52.5211 33.4224 55.2421 33.587 55.9421C33.7515 56.6421 33.8099 58.7 33.8099 58.7C33.8099 58.7 33.587 58.779 33.6294 59.2263C33.6719 59.6684 33.4649 60.5158 33.5286 60.6948C33.5923 60.8737 39.3997 61.0369 39.5802 60.9948C39.7607 60.9527 39.6227 60.8158 39.4369 60.6737C39.2511 60.5316 38.991 60.4527 38.8901 60.3527C38.7892 60.2527 38.8317 60.2527 38.7096 60.1105C38.5875 59.9684 37.9771 59.7474 37.6957 59.4684C37.4144 59.1895 37.0056 58.8632 36.9844 58.6C36.9631 58.3369 36.9047 57.8526 36.6977 57.7948C36.4907 57.7369 36.273 57.5948 36.273 57.5948L36.1722 56.9895C36.1722 56.9895 36.1722 52.5369 36.273 51.9948C36.3739 51.4527 36.4748 49.0158 36.3739 48.3263C36.273 47.6369 36.1297 46.7158 35.8643 46.1527C35.5989 45.5895 35.1954 44.7632 35.1954 43.9579C35.1954 43.1527 34.8504 42.5895 34.9937 41.9053C35.137 41.2211 35.2963 39.7105 35.137 39.1263C34.9778 38.5421 34.6274 37.5948 34.6274 37.3316C34.6274 37.0684 34.1603 35.3369 33.9373 34.8527C33.7144 34.3684 33.571 34.0263 33.571 34.0263C33.571 34.0263 33.9373 33.8474 33.9373 33.7053C33.9373 33.5632 33.8789 33.5053 33.8577 33.3421C33.8365 33.179 33.3693 31.8527 33.3269 31.5105C33.2844 31.1684 32.7164 30.3 32.5359 30.0579C32.3554 29.8158 32.2492 29.5737 32.0688 29.5158C31.8883 29.4579 31.867 29.6158 31.7449 29.4158C31.6228 29.2158 31.4211 28.8105 31.522 28.3474C31.6229 27.8842 31.5804 27.4 31.5645 27.2579C31.5485 27.1158 31.5061 26.9369 31.4636 26.8158C31.4211 26.6948 31.299 26.3263 31.299 26.3263L31.246 26.3211Z" fill="#2F3033"/>
</g>
<defs>
<clipPath id="clip0_4047_53194">
<rect width="145" height="61" fill="white"/>
</clipPath>
</defs>
</svg>
