<svg width="151" height="44" viewBox="0 0 151 44" fill="none" xmlns="http://www.w3.org/2000/svg">
<g clip-path="url(#clip0_4047_14434)">
<path d="M147.344 0.611328H3.08152C1.71997 0.611328 0.616211 1.70574 0.616211 3.05577V40.9447C0.616211 42.2947 1.71997 43.3891 3.08152 43.3891H147.344C148.705 43.3891 149.809 42.2947 149.809 40.9447V3.05577C149.809 1.70574 148.705 0.611328 147.344 0.611328Z" stroke="#7E212B"/>
<path d="M54.0005 11.5229C54.0005 12.3649 53.7883 13.1017 53.2575 13.6279C52.6206 14.2594 51.8776 14.5751 50.9223 14.5751C49.967 14.5751 49.224 14.2594 48.5871 13.6279C47.9503 12.9964 47.6318 12.2597 47.6318 11.3125C47.6318 10.3652 47.9503 9.62855 48.5871 8.99703C49.224 8.36557 49.967 8.0498 50.9223 8.0498C51.3469 8.0498 51.7715 8.15504 52.196 8.36557C52.6206 8.57603 52.9391 8.78656 53.1513 9.10226L52.6206 9.62849C52.196 9.10226 51.6653 8.89179 50.9223 8.89179C50.2854 8.89179 49.6486 9.10226 49.224 9.62849C48.6933 10.0495 48.481 10.681 48.481 11.4177C48.481 12.1545 48.6933 12.7859 49.224 13.2069C49.7547 13.6279 50.2854 13.9436 50.9223 13.9436C51.6653 13.9436 52.196 13.7331 52.7268 13.2069C53.0452 12.8911 53.2575 12.4702 53.2575 11.9439H50.9223V11.2072H54.0005C54.0005 11.2072 54.0005 11.3125 54.0005 11.5229Z" fill="#7E212B" stroke="#7E212B" stroke-width="0.2" stroke-miterlimit="10"/>
<path d="M58.8831 8.89179H56.0171V10.8915H58.6707V11.6282H56.0171V13.6279H58.8831V14.3646H55.168V8.0498H58.8831V8.89179Z" fill="#7E212B" stroke="#7E212B" stroke-width="0.2" stroke-miterlimit="10"/>
<path d="M62.3863 14.3646H61.5369V8.78656H59.7324V8.0498H64.1903V8.78656H62.3863V14.3646Z" fill="#7E212B" stroke="#7E212B" stroke-width="0.2" stroke-miterlimit="10"/>
<path d="M67.2686 14.3646V8.0498H68.1172V14.3646H67.2686Z" fill="#7E212B" stroke="#7E212B" stroke-width="0.2" stroke-miterlimit="10"/>
<path d="M71.7265 14.3646H70.8778V8.78656H69.0732V8.0498H73.4251V8.78656H71.6205V14.3646H71.7265Z" fill="#7E212B" stroke="#7E212B" stroke-width="0.2" stroke-miterlimit="10"/>
<path d="M81.8104 13.6279C81.1737 14.2594 80.4304 14.5751 79.4751 14.5751C78.5198 14.5751 77.7772 14.2594 77.1399 13.6279C76.5032 12.9964 76.1846 12.2597 76.1846 11.3125C76.1846 10.3652 76.5032 9.62855 77.1399 8.99703C77.7772 8.36557 78.5198 8.0498 79.4751 8.0498C80.4304 8.0498 81.1737 8.36557 81.8104 8.99703C82.4471 9.62855 82.7657 10.3652 82.7657 11.3125C82.7657 12.1545 82.4471 12.9964 81.8104 13.6279ZM77.7772 13.1017C78.2018 13.5227 78.8385 13.8384 79.4751 13.8384C80.1124 13.8384 80.7491 13.6279 81.1737 13.1017C81.5984 12.6807 81.9164 12.0492 81.9164 11.3125C81.9164 10.5757 81.7044 9.94425 81.1737 9.52325C80.7491 9.10226 80.1124 8.78656 79.4751 8.78656C78.8385 8.78656 78.2018 8.99703 77.7772 9.52325C77.3525 9.94425 77.0339 10.5757 77.0339 11.3125C77.0339 11.9439 77.2465 12.5754 77.7772 13.1017Z" fill="#7E212B" stroke="#7E212B" stroke-width="0.2" stroke-miterlimit="10"/>
<path d="M83.9336 14.3646V8.0498H84.8889L87.9668 12.9964V11.7335V8.0498H88.8161V14.3646H87.9668L84.6763 9.20755V10.4705V14.3646H83.9336Z" fill="#7E212B" stroke="#7E212B" stroke-width="0.2" stroke-miterlimit="10"/>
<path d="M75.9716 23.6263C73.4243 23.6263 71.4077 25.5207 71.4077 28.1519C71.4077 30.6778 73.4243 32.6775 75.9716 32.6775C78.5189 32.6775 80.5361 30.783 80.5361 28.1519C80.5361 25.5207 78.5189 23.6263 75.9716 23.6263ZM75.9716 30.783C74.5917 30.783 73.4243 29.6254 73.4243 28.0467C73.4243 26.4679 74.5917 25.3102 75.9716 25.3102C77.3516 25.3102 78.5189 26.3627 78.5189 28.0467C78.5189 29.7306 77.3516 30.783 75.9716 30.783ZM66.0999 23.6263C63.5526 23.6263 61.536 25.5207 61.536 28.1519C61.536 30.6778 63.5526 32.6775 66.0999 32.6775C68.6478 32.6775 70.6644 30.783 70.6644 28.1519C70.6644 25.5207 68.6478 23.6263 66.0999 23.6263ZM66.0999 30.783C64.7206 30.783 63.5526 29.6254 63.5526 28.0467C63.5526 26.4679 64.7206 25.3102 66.0999 25.3102C67.4799 25.3102 68.6478 26.3627 68.6478 28.0467C68.6478 29.7306 67.4799 30.783 66.0999 30.783ZM54.3181 24.9945V26.8889H58.8823C58.7762 27.9414 58.3516 28.7834 57.8209 29.3096C57.184 29.9411 56.1225 30.6778 54.3181 30.6778C51.4522 30.6778 49.3292 28.4676 49.3292 25.626C49.3292 22.7843 51.5583 20.5741 54.3181 20.5741C55.8041 20.5741 56.9717 21.2056 57.8209 21.9423L59.2008 20.5741C58.0331 19.5217 56.5471 18.6797 54.4242 18.6797C50.603 18.6797 47.3125 21.8371 47.3125 25.626C47.3125 29.4148 50.603 32.5723 54.4242 32.5723C56.5471 32.5723 58.0331 31.9408 59.3069 30.5726C60.5807 29.3096 61.0052 27.5204 61.0052 26.1522C61.0052 25.7312 61.0052 25.3102 60.8991 24.9945H54.3181ZM102.508 26.4679C102.084 25.4155 101.022 23.6263 98.687 23.6263C96.3517 23.6263 94.4411 25.4155 94.4411 28.1519C94.4411 30.6778 96.3517 32.6775 98.899 32.6775C100.916 32.6775 102.19 31.4146 102.614 30.6778L101.128 29.6254C100.598 30.3621 99.9603 30.8883 98.899 30.8883C97.8377 30.8883 97.2004 30.4673 96.6697 29.5201L102.72 26.9942L102.508 26.4679ZM96.3517 27.9414C96.3517 26.2575 97.7316 25.3102 98.687 25.3102C99.4296 25.3102 100.173 25.7312 100.385 26.2575L96.3517 27.9414ZM91.3625 32.2565H93.3792V19.1007H91.3625V32.2565ZM88.1786 24.5735C87.6473 24.0473 86.7986 23.521 85.7367 23.521C83.5081 23.521 81.3848 25.5207 81.3848 28.0467C81.3848 30.5726 83.4021 32.467 85.7367 32.467C86.7986 32.467 87.6473 31.9408 88.072 31.4146H88.1786V32.046C88.1786 33.7299 87.2233 34.6772 85.7367 34.6772C84.5694 34.6772 83.7201 33.8352 83.5081 33.0985L81.8095 33.8352C82.3401 34.9929 83.6141 36.4664 85.8433 36.4664C88.1786 36.4664 90.0892 35.0982 90.0892 31.8356V23.8368H88.1786V24.5735ZM85.8433 30.783C84.4634 30.783 83.2954 29.6254 83.2954 28.0467C83.2954 26.4679 84.4634 25.3102 85.8433 25.3102C87.2233 25.3102 88.2846 26.4679 88.2846 28.0467C88.2846 29.6254 87.2233 30.783 85.8433 30.783ZM111.743 19.1007H106.966V32.2565H108.983V27.3099H111.743C113.971 27.3099 116.094 25.7312 116.094 23.2053C116.094 20.6794 113.971 19.1007 111.743 19.1007ZM111.849 25.5207H108.983V20.9951H111.849C113.335 20.9951 114.184 22.2581 114.184 23.2053C114.078 24.2578 113.229 25.5207 111.849 25.5207ZM124.056 23.6263C122.569 23.6263 121.083 24.2578 120.552 25.626L122.357 26.3627C122.782 25.626 123.418 25.4155 124.162 25.4155C125.223 25.4155 126.178 26.047 126.284 27.0995V27.2047C125.966 26.9942 125.117 26.6785 124.268 26.6785C122.357 26.6785 120.446 27.7309 120.446 29.6254C120.446 31.4146 122.038 32.5723 123.737 32.5723C125.117 32.5723 125.754 31.9408 126.284 31.3093H126.39V32.3618H128.301V27.3099C128.089 24.8892 126.284 23.6263 124.056 23.6263ZM123.843 30.783C123.206 30.783 122.251 30.4673 122.251 29.6254C122.251 28.5729 123.418 28.2571 124.374 28.2571C125.223 28.2571 125.648 28.4677 126.178 28.6781C125.966 29.9411 124.904 30.783 123.843 30.783ZM134.988 23.8368L132.759 29.5201H132.653L130.318 23.8368H128.195L131.698 31.8356L129.681 36.2559H131.698L137.111 23.8368H134.988ZM117.156 32.2565H119.172V19.1007H117.156V32.2565Z" fill="#7E212B"/>
<path d="M14.1964 34.8879C13.7718 34.6774 13.5596 34.1512 13.5596 33.625C13.5596 33.5197 13.5596 33.3092 13.5596 33.204C13.5596 25.4157 13.5596 17.6274 13.5596 9.94442C13.5596 9.52343 13.6657 9.20773 13.7718 8.78673C13.878 8.57621 14.0903 8.36574 14.3026 8.15527C18.8668 12.6809 23.3249 17.2064 27.783 21.7321C23.2188 25.9419 18.7607 30.3623 14.1964 34.8879Z" fill="#7E212B"/>
<path d="M32.2406 17.1008C30.9669 18.3638 29.587 19.6267 28.3133 20.9949C24.0675 16.6798 19.7155 12.3647 15.4697 8.04957C15.4697 8.04957 15.4697 7.94434 15.5759 7.94434C21.0954 10.9965 26.6149 14.0487 32.2406 17.1008Z" fill="#7E212B"/>
<path d="M15.4697 34.8874C19.7155 30.6775 24.0675 26.4677 28.3133 22.2578C29.4809 23.4155 30.7546 24.5733 32.1345 25.8362C26.6149 28.8884 21.0954 31.9405 15.5759 34.8874H15.4697Z" fill="#7E212B"/>
<path d="M32.8782 25.415C31.4983 24.152 30.2246 22.8891 28.8447 21.6261C30.2246 20.2579 31.6045 18.8897 32.9843 17.5215C33.4089 17.732 33.8335 17.9425 34.2581 18.2582C35.3195 18.8897 36.4872 19.4159 37.5486 20.0474C37.8671 20.1526 38.0793 20.3632 38.2916 20.6789C38.7162 21.2051 38.7162 21.7314 38.2916 22.2576C38.0793 22.4681 37.8671 22.6786 37.5486 22.7838C36.0626 23.731 34.4704 24.573 32.8782 25.415Z" fill="#7E212B"/>
</g>
<defs>
<clipPath id="clip0_4047_14434">
<rect width="151" height="44" fill="white"/>
</clipPath>
</defs>
</svg>
